/* XPM */
static char *_9ea74c674f441569cebfebfc3848795Vuh9kvneLtNN4n8n[] = {
/* columns rows colors chars-per-pixel */
"64 64 53 1 ",
"  c #B1E3DC",
". c #B1E4DD",
"X c #B0E2DA",
"o c #ABD9CC",
"O c #AAD8CA",
"+ c #ABD8CA",
"@ c #869764",
"# c #808D53",
"$ c #808D54",
"% c #798140",
"& c #7A8141",
"* c #B2E4DE",
"= c #ABD8CB",
"- c #818D54",
"; c #A6CFBC",
": c #859662",
"> c #A5CEBA",
", c #808C52",
"< c #7B8344",
"1 c #7A8242",
"2 c #B0E3DC",
"3 c #AAD7CA",
"4 c #7F8D53",
"5 c #79803F",
"6 c #BAE6E0",
"7 c #BBE7E1",
"8 c #B4DCD0",
"9 c #8F9B68",
"0 c #899057",
"q c #B9E6E0",
"w c #B2E3DC",
"e c #F6FCFB",
"r c #F5FAF9",
"t c #F0F2EB",
"y c #EFF0E9",
"u c #EEF9F7",
"i c white",
"p c #FFFFFC",
"a c #FEFCE9",
"s c #FDFBE5",
"d c #F5E756",
"f c #F3E33E",
"g c #F2E023",
"h c #FEFBE5",
"j c #F4E43E",
"k c #FDFBE8",
"l c #EDE452",
"z c #EAE03A",
"x c #F7FCF8",
"c c #C1E6CD",
"v c #B8E2C6",
"b c #BAE6E1",
"n c #B0E3DD",
/* pixels */
"                                                                ",
"                                                                ",
"        ............                    ....                    ",
"       XoO++++++++OoX                  XoOOoX                   ",
"      .o@#$$$$$$$$#@o.                .o@##@o.                  ",
"      .O#%&&&&&&&&%#O.                .O#%%#O.                  ",
"    ..*=#%&&&&&&&&%#=*......        ..*=-&&$+.                  ",
"   XoO=;:#$$$$$$$$#:;=++++OoX      XoO=>,&&$+.                  ",
"  .o@##:;=++++++++=;:#$$$$#@o.    .o@#-,<1&$+.                  ",
"  .O#%%#=*........*=#%&&&&%#O.    .O#%&&11&$+.                  ",
"  .+$&&$+.        .O#%&&11&-=*..  .+$&1111&-=*......            ",
"  .+$&&$+.        .o@#-,<1&,>=OoX .+$&1111&,>=++++OoX           ",
"  .+$&&$+.         XoO=>,&1<,-#@o..+$&11111<,-$$$$#@o.          ",
"  .+$&&$+.          ..*=-&11&&%#O..+$&111111&&&&&&%#O.          ",
"22.345543.22          .O#%&&11&$+..+$&111111&&&&11&$+.          ",
"66789009876qw         .o@#-,<1&$+..+$&11111<,--,<1&$+.          ",
"eeertyytreeuq2         XoO=>,&&$+..+$&1111&,>==>,&&$+.          ",
"iiiiiiiiiiie62          ..*=-&&$+..+$&1111&-=**=-&&$+.          ",
"iiiiiiiiiiie62  ..........*=#%%#=**=-&11&&%#O..+$&&$+.          ",
"iiipassapiie62 XoO++++++++=;:##:;==>,&1<,-#@o..+$&&$+.          ",
"iiiadffdaiie62.o@#$$$$$$$$#:;==;:#-,<1&,>=OoX .+$&&$+.          ",
"iiisfggfsiie62.O#%&&&&&&&&%#=**=#%&&11&-=*..  .+$&&$+.          ",
"iiihjggjhiie62.+$&11&&&&11&$+..+$&11&&%#O.  22.345543.22        ",
"iiiklzzlkiie62.+$&1<,--,<1&$+..+$&1<,-#@o. wq6789009876qw       ",
"iiixcvvcxiie62.+$&&,>==>,&&$+..+$&&,>=OoX 2queertyytreeuq2      ",
"iiiebnnbeiie62.+$&&-=**=-&&$+..+$&&-=*..  26eiiiiiiiiiie62      ",
"iiie6226eiie62.+$&&$+..O#%%#=**=-&&$+.    26eiiiiiiiiiie62      ",
"eeeuq22queeuq2.+$&&$+..o@##:;==>,&&$+.    26eiipassapiie62      ",
"666qw  wq66qw .+$&&$+. XoO=;:#-,<1&$+.    26eiiadffdaiie62      ",
"2222    2222  .+$&&$+.  ..*=#%&&11&$+.    26eiisfggfsiie62      ",
"            22.345543.22  .+$&11&&%#O.    26eiihjggjhiie62      ",
"           wq6789009876qw .+$&1<,-#@o.    26eiiklzzlkiie62      ",
"          2queertyytreeuq2.+$&&,>=OoX     26eiixcvvcxiie62      ",
"          26eiiiiiiiiiie62.+$&&-=*..      26eiiebnnbeiie62      ",
"          26eiiiiiiiiiie62.+$&&$+.        26eiie6226eiie62      ",
"          26eiipassapiie62.+$&&$+.        2queeuq22queeuq2      ",
"          26eiiadffdaiie62.+$&&$+.         wq66qw  wq66qw       ",
"          26eiisfggfsiie62.+$&&$+.          2222    2222        ",
"          26eiihjggjhiie62.+$&&-=*..    ........                ",
"          26eiiklzzlkiie62.+$&&,>=OoX  XoO++++OoX               ",
"          26eiixcvvcxiie62.+$&1<,-#@o..o@#$$$$#@o.              ",
"          26eiiebnnbeiie62.+$&11&&%#O..O#%&&&&%#O.              ",
"          26eiie6226eiie62.+$&1111&-=**=#%&&&&%#=*..            ",
"          2queeuq22queeuq2.+$&1111&,>==;:#$$$$#:;=OoX           ",
"           wq66qw  wq66qw .+$&11111<,-#:;=++++=;:##@o.          ",
"            2222    2222  .+$&111111&&%#=*....*=#%%#O.          ",
"        ........          .+$&11&&&&&&%#O.  22.345543.22        ",
"       XoO++++OoX         .+$&1<,-$$$$#@o. wq6789009876qw       ",
"      .o@#$$$$#@o.        .+$&&,>=++++OoX 2queertyytreeuq2      ",
"      .O#%&&&&%#O.        .+$&&-=*......  26eiiiiiiiiiie62      ",
"      .O#%&&&&%#=*......  .+$&&$+.        26eiiiiiiiiiie62      ",
"      .o@#$$$$#:;=++++OoX .+$&&$+.        26eiipassapiie62      ",
"       XoO++++=;:#$$$$#@o..+$&&$+.        26eiiadffdaiie62      ",
"        ......*=#%&&&&%#O..+$&&$+.        26eiisfggfsiie62      ",
"              .O#%&&&&%#=**=-&&-=*..      26eiihjggjhiie62      ",
"              .o@#$$$$#:;==>,&&,>=OoX     26eiiklzzlkiie62      ",
"               XoO++++=;:#-,<11<,-#@o.    26eiixcvvcxiie62      ",
"                ......*=#%&&1111&&%#O.    26eiiebnnbeiie62      ",
"                      .O#%&&111111&$+.    26eiie6226eiie62      ",
"                      .o@#-,<11111&$+.    2queeuq22queeuq2      ",
"                       XoO=>,&1111&$+.     wq66qw  wq66qw       ",
"                        ..*=-&1111&$+.      2222    2222        ",
"                          .+$&1111&$+.                          ",
"                          .+$&1111&$+.                          "
};
