/* XPM */
static char *_5ea47ea654846eeb7f507db42d8034dtNPMwWmlYBJ2hLwD[] = {
/* columns rows colors chars-per-pixel */
"64 64 8 1 ",
"  c #B1E3DC",
". c #B0E3DC",
"X c #BAE6E0",
"o c #B9E6E0",
"O c #B2E3DC",
"+ c #F6FCFB",
"@ c #EEF9F7",
"# c white",
/* pixels */
"                                                                ",
"                                                                ",
"....                                                ....        ",
"XXXoO                                              OoXXoO       ",
"+++@o.                                            .o@++@o.      ",
"###+X.                                            .X+##+X.      ",
"###+X.                          ....              .X+##+X.      ",
"+++@o.                         OoXXoO             .o@++@o.      ",
"XXXoO                         .o@++@o.             OoXXoO       ",
"....                          .X+##+X.              ....        ",
"                    ....      .X+##+X.      ....                ",
"                   OoXXoO     .o@++@o.     OoXXoO               ",
"                  .o@++@o.     OoXXoO     .o@++@o.              ",
"                  .X+##+X.      ....      .X+##+X.              ",
"                  .X+##+X.                .X+##+X.      ....    ",
"                  .o@++@o.                .o@++@o.     OoXXoO   ",
"                   OoXXoO                  OoXXoO     .o@++@o.  ",
"                    ....                    ....      .X+##+X.  ",
"                                                      .X+##+X.  ",
"                                                      .o@++@o.  ",
"                                                       OoXXoO   ",
"                                                        ....    ",
"        ....                ....                                ",
"       OoXXoO              OoXXoO                               ",
"      .o@++@o.            .o@++@o.                              ",
"      .X+##+X.            .X+##+X.                              ",
"      .X+##+X.            .X+##+X.                              ",
"      .o@++@o.            .o@++@o.                              ",
"       OoXXoO              OoXXoO                               ",
"        ....                ....                                ",
"                                                    ....        ",
"                                                   OoXXoO       ",
"                                                  .o@++@o.      ",
"                                                  .X+##+X.      ",
"                                        ....      .X+##+X.      ",
"                                       OoXXoO     .o@++@o.      ",
"                                      .o@++@o.     OoXXoO       ",
"                                      .X+##+X.      ....        ",
"    ....                    ....      .X+##+X.                  ",
"   OoXXoO                  OoXXoO     .o@++@o.                  ",
"  .o@++@o.                .o@++@o.     OoXXoO                   ",
"  .X+##+X.                .X+##+X.      ....                    ",
"  .X+##+X.                .X+##+X.                              ",
"  .o@++@o.                .o@++@o.                              ",
"   OoXXoO                  OoXXoO                               ",
"    ....                    ....                                ",
"                                                                ",
"                                                                ",
"                                                                ",
"                                                                ",
"                    ....                ....                    ",
"                   OoXXoO              OoXXoO                   ",
"                  .o@++@o.            .o@++@o.                  ",
"                  .X+##+X.            .X+##+X.                  ",
"    ....          .X+##+X.            .X+##+X.          ....    ",
"   OoXXoO         .o@++@o.            .o@++@o.         OoXXoO   ",
"  .o@++@o.         OoXXoO              OoXXoO         .o@++@o.  ",
"  .X+##+X.          ....                ....          .X+##+X.  ",
"  .X+##+X.                      ....                  .X+##+X.  ",
"  .o@++@o.                     OoXXoO                 .o@++@o.  ",
"   OoXXoO                     .o@++@o.                 OoXXoO   ",
"    ....                      .X+##+X.                  ....    ",
"                              .X+##+X.                          ",
"                              .X+##+X.                          "
};
