/* XPM */
static char *_c662de8434f4bf5cb0e0455ff6126753JjeYmcLklqAbzGb[] = {
/* columns rows colors chars-per-pixel */
"64 64 150 2 ",
"   c #020202",
".  c #070809",
"X  c #0B0C0C",
"o  c #0C0504",
"O  c #190200",
"+  c #130806",
"@  c #100D0D",
"#  c #1D0F0D",
"$  c #0C0F10",
"%  c #0E1213",
"&  c #131414",
"*  c #121719",
"=  c #151B1D",
"-  c #1A1B1B",
";  c #2D0500",
":  c #210E0C",
">  c #3E0800",
",  c #26110D",
"<  c #171E20",
"1  c #1B1F21",
"2  c #1B2225",
"3  c #1D2629",
"4  c #1F282B",
"5  c #242525",
"6  c #212729",
"7  c #23292B",
"8  c #2A2A2B",
"9  c #232D31",
"0  c #263134",
"q  c #29373B",
"w  c #2B393E",
"e  c #343434",
"r  c #373738",
"t  c #3C3C3C",
"y  c #460A00",
"u  c #4C0A00",
"i  c #520B00",
"p  c #6C0F00",
"a  c #721000",
"s  c #7F1200",
"d  c #2E3D42",
"f  c #303E43",
"g  c #314146",
"h  c #334449",
"j  c #37484E",
"k  c #3A4D53",
"l  c #3D5157",
"z  c #3E5158",
"x  c #434343",
"c  c #4B4B4B",
"v  c #41565D",
"b  c #4D5A5F",
"n  c #535353",
"m  c #5C5C5C",
"M  c #465C64",
"N  c #485F67",
"B  c #4B646C",
"V  c #526064",
"C  c #4E6871",
"Z  c #516B74",
"A  c #546F78",
"S  c #56727B",
"D  c #59757E",
"F  c #646464",
"G  c #6C6C6C",
"H  c #757575",
"J  c #7D7D7D",
"K  c #841300",
"L  c #A21800",
"P  c #B71B00",
"I  c #BD1C00",
"U  c #C51E00",
"Y  c #D52000",
"T  c #DF2200",
"R  c #E02200",
"E  c #EB2400",
"W  c #5C7A83",
"Q  c #5F7E88",
"!  c #617F8A",
"~  c #63838E",
"^  c #73868C",
"/  c #658691",
"(  c #678893",
")  c #688A95",
"_  c #6B8E9A",
"`  c #6F929E",
"'  c #7196A2",
"]  c #759AA6",
"[  c #769DAA",
"{  c #799EAB",
"}  c #7AA1AF",
"|  c #7EA6B4",
" . c #848484",
".. c #8C8C8C",
"X. c #919191",
"o. c #9B9A9A",
"O. c #80A9B7",
"+. c #83ADBB",
"@. c #86B1BF",
"#. c #A3A3A3",
"$. c #ACACAC",
"%. c #B3B3B3",
"&. c #BCBCBC",
"*. c #87B2C1",
"=. c #89B5C4",
"-. c #8BB8C7",
";. c #8DBACA",
":. c #90BECE",
">. c #93C2D2",
",. c #9BCCDD",
"<. c #9DCFE0",
"1. c #9FD1E2",
"2. c #A1D4E5",
"3. c #A3D7E9",
"4. c #A5DAEC",
"5. c #A8DDEF",
"6. c #B3DCE9",
"7. c #A9DEF1",
"8. c #ABE2F5",
"9. c #AFE6F9",
"0. c #AFE8FA",
"q. c #B3ECFF",
"w. c #C3C3C3",
"e. c #CCCCCC",
"r. c #CFD4D6",
"t. c #D3D3D3",
"y. c #DBDBDB",
"u. c #C4F0FF",
"i. c #E7E7E7",
"p. c #E6E6E6",
"a. c #E5E5E5",
"s. c #E3E3E3",
"d. c gray91",
"f. c #E9E9E9",
"g. c #EBEBEB",
"h. c #ECECEC",
"j. c #E4F2F7",
"k. c #EAF9FF",
"l. c #EAF9FF",
"z. c #F0F0F0",
"x. c #F5F5F5",
"c. c #F6F6F6",
"v. c gray97",
"b. c #F3F3F3",
"n. c #F9F9F9",
"m. c #FBFBFB",
"M. c gray98",
"N. c #FEFEFE",
"B. c white",
"V. c #FFFFFF",
/* pixels */
"q.q.q.q.q.q.q.q.q.q.q.q.q.q.q.q.q.q.q.q.q.q.q.q.q.q.q.q.q.q.q.q.q.q.q.q.q.q.q.q.q.q.q.q.q.q.q.q.q.q.q.q.q.q.q.q.q.q.q.q.q.u.l.B.",
"q.q.q.q.q.q.q.q.q.q.q.q.q.q.q.q.q.q.q.q.q.q.q.q.q.q.q.q.q.q.q.q.q.q.q.q.q.q.q.q.q.q.q.q.q.q.q.q.q.q.q.q.q.q.q.q.q.q.q.q.q.u.l.B.",
"q.q.q.q.q.q.q.q.q.q.q.q.q.q.q.q.q.q.q.q.q.q.q.q.q.q.q.q.q.q.q.q.q.q.q.q.q.q.q.q.q.q.q.q.q.q.q.q.q.q.q.q.q.q.q.q.q.q.q.q.q.u.l.B.",
"q.q.q.q.q.q.q.q.q.q.q.q.q.q.q.q.q.q.q.q.q.q.q.q.q.q.q.q.q.q.q.q.q.q.q.q.q.q.q.q.q.q.q.q.q.q.q.q.q.q.q.q.q.q.q.q.q.q.q.q.q.u.l.B.",
"q.q.q.q.q.q.q.q.q.q.q.q.q.q.q.q.q.q.q.q.q.q.q.0.q.q.q.q.q.q.q.q.q.q.q.q.q.q.q.q.q.q.q.q.q.q.q.q.q.q.q.q.q.q.q.q.q.q.q.q.q.u.l.B.",
"q.q.q.q.q.q.q.q.q.q.q.q.q.q.q.q.q.q.8.>.} [ [ [ [ [ [ [ +.2.q.q.q.q.q.q.q.q.q.q.q.q.q.q.q.q.q.q.q.q.q.q.q.q.q.q.q.q.q.q.q.u.l.B.",
"q.q.q.q.q.q.q.q.q.q.q.q.q.q.q.q.q.q.3.! 0 6 7 7 7 7 7 4 l *.q.q.q.q.q.q.q.q.q.q.q.q.q.q.q.q.q.q.q.q.q.q.q.q.q.q.q.q.q.q.q.u.l.B.",
"q.q.q.q.q.q.q.q.q.q.q.q.q.q.q.q.q.q.2.C @ ; i i i i y O 0 | q.q.q.q.q.q.q.q.q.q.q.q.q.q.q.q.q.q.q.q.q.q.q.q.q.q.q.q.q.q.q.u.l.B.",
"q.q.q.q.q.q.q.q.q.q.q.q.q.q.q.q.q.q.2.C # a I U U U L > 0 | q.q.q.q.q.q.q.q.q.q.q.q.q.q.q.q.q.q.q.q.q.q.q.q.q.q.q.q.q.q.q.u.l.B.",
"q.q.q.q.q.q.q.q.q.q.q.q.q.q.q.q.q.q.2.C : K R E E E U u 0 | q.q.q.q.q.q.q.q.q.q.q.q.q.q.q.q.q.q.q.q.q.q.q.q.q.q.q.q.q.q.q.u.l.B.",
"q.q.q.q.q.q.q.q.q.q.q.q.q.q.q.q.q.9.,.B : K Y T T R P y 9 { 8.q.q.q.q.q.q.q.q.q.q.q.q.q.q.q.q.q.q.q.q.q.q.q.q.q.q.q.q.q.q.u.l.B.",
"q.q.q.q.q.q.q.q.q.q.q.q.q.q.q.q.8.-.! d + u s K K K p ; = N [ 1.q.q.q.q.q.q.q.q.q.q.q.q.q.q.q.q.q.q.q.q.q.q.q.q.q.q.q.q.q.u.l.B.",
"q.q.q.q.q.q.q.q.q.q.q.q.q.q.q.9.<.W 3 % @ # , , , , : o . % j O.8.q.q.q.q.q.q.q.q.q.q.q.q.q.q.q.q.q.q.q.q.q.q.q.q.q.q.q.q.u.l.B.",
"q.q.q.q.q.q.q.q.q.q.q.q.q.q.9.-.Q d & t G H H H H H m 5     = M ] 1.q.q.q.q.q.q.q.q.q.q.q.q.q.q.q.q.q.q.q.q.q.q.q.q.q.q.q.u.l.B.",
"q.q.q.q.q.q.q.q.q.q.q.9.7.5.<.W 2 % 5  .y.d.i.i.i.d.&.n & & & & k ;.q.q.q.q.q.q.q.q.q.q.q.q.q.q.q.q.q.q.q.q.q.q.q.q.q.q.q.u.l.B.",
"q.q.q.q.q.q.q.q.q.q.9.;.~ W A w % t  .w.n.B.B.B.B.B.d.#.J J m 5 d *.q.q.q.q.q.q.q.q.q.q.q.q.q.q.q.q.q.q.q.q.q.q.q.q.q.q.q.u.l.B.",
"q.q.q.q.q.q.q.q.q.q.8._ 7 = 5 - 8  .y.c.B.B.B.B.B.B.n.z.d.d.%.t d =.q.q.q.q.q.q.q.q.q.q.q.q.q.q.q.q.q.q.q.q.q.q.q.q.q.q.q.u.l.B.",
"q.q.q.q.q.q.q.q.q.q.8./ 2 t H  ...w.n.B.B.B.B.B.B.B.B.B.B.B.w.x f =.q.q.q.q.q.q.q.q.q.q.q.q.q.q.q.q.q.q.q.q.q.q.q.q.q.q.q.u.l.B.",
"q.q.q.q.q.q.q.q.q.q.8./ 6 G y.z.z.c.n.z.d.c.B.B.B.B.n.h.d.c.w.x w } 4.9.q.q.q.q.q.q.q.q.q.q.q.q.q.q.q.q.q.q.q.q.q.q.q.q.q.u.l.B.",
"q.q.q.q.q.q.q.q.q.q.8./ 6 H d.B.B.B.z.$...w.n.B.B.B.i.o.X.t.w.x = l _ 1.q.q.q.q.q.q.q.q.q.q.q.q.q.q.q.q.q.q.q.q.q.q.q.q.q.u.l.B.",
"q.q.q.q.q.q.q.q.q.q.8./ 6 H i.B.B.B.i.H e o.c.B.B.B.t.m x %.w.m - % k ;.q.q.q.q.q.q.q.q.q.q.q.q.q.q.q.q.q.q.q.q.q.q.q.q.q.u.l.B.",
"q.q.q.q.q.q.q.q.q.q.8./ 6 H i.B.B.B.i.G 8 X.c.B.B.B.e.c e %.s.%.G 5 h ;.q.q.q.q.q.q.q.q.q.q.q.q.q.q.q.q.q.q.q.q.q.q.q.q.q.u.l.B.",
"q.q.q.q.q.q.q.q.q.q.8./ 6 H i.B.B.B.d. .x #.c.B.B.B.t.G n &.n.c.%.t h ;.q.q.q.q.q.q.q.q.q.q.q.q.q.q.q.q.q.q.q.q.q.q.q.q.q.u.l.B.",
"q.q.q.q.q.q.q.q.q.q.7.~ 6 H i.B.B.B.c.e.$.t.n.B.B.B.h.&.%.s.B.B.&.t h ;.q.q.q.q.q.q.q.q.q.q.q.q.q.q.q.q.q.q.q.q.q.q.q.q.q.u.l.B.",
"q.q.q.q.q.q.q.q.q.q.7.~ 6 H i.B.B.B.B.n.n.n.B.B.B.B.B.n.n.B.c.y.o.e h ;.q.q.q.q.q.q.q.q.q.q.q.q.q.q.q.q.q.q.q.q.q.q.q.q.q.u.l.B.",
"q.q.q.q.q.q.q.q.q.q.7./ 6 H d.B.B.B.B.B.B.B.B.B.B.B.B.B.B.B.y. .x & h ;.q.q.q.q.q.q.q.q.q.q.q.q.q.q.q.q.q.q.q.q.q.q.q.q.q.u.l.B.",
"q.q.q.q.q.q.q.q.q.q.8./ 2 m &.t.t.d.B.B.B.B.B.B.c.s.t.t.t.e.#.t % 2 B >.q.q.q.q.q.q.q.q.q.q.q.q.q.q.q.q.q.q.q.q.q.q.q.q.q.u.l.B.",
"q.q.q.q.q.q.q.q.q.q.8./ = 5 c n F $.c.B.B.B.B.B.s...n n n n t & 4 W -.5.q.q.q.q.q.q.q.q.q.q.q.q.q.q.q.q.q.q.q.q.q.q.q.q.q.u.l.B.",
"q.q.q.5.>.;.;.,.8.q.8.] h 0 0 = & G &.e.e.e.e.e.$.c & 5 8 &     0 _ >.8.q.q.q.q.3.>.;.;.;.:.1.0.q.q.q.q.q.q.q.q.q.q.q.q.q.u.l.B.",
"q.q.q.;.B h j ~ 1.q.q.,.+.| ] v & 5 x c c c c c t - 5 J ..e     % q D ,.q.q.q.9.+.M h h h k ' 5.q.q.q.q.q.q.q.q.q.q.q.q.q.u.l.B.",
"q.q.q.-.M 3 $ g ] ,.8.2.;.*.| M X   . 5 t t t t t t m &.t.H t t t t V [ >.8.q.9.` 2 * 0 w h _ 5.q.q.q.q.q.q.q.q.q.q.q.q.q.u.l.B.",
"q.q.q.3.-.S 1 & w ~ ,.| z d d 2 .   & F %.&.&.&.&.&.w.d.z.e.&.&.&.&.o.b D ,.q.8.` 3 h ] +.@.,.9.q.q.q.q.q.q.q.q.q.q.q.q.q.u.l.B.",
"q.q.q.q.q.@.M 3 % M >.( < - t x x x n $.c.B.B.B.B.B.B.B.B.B.B.B.B.B.%.e q _ +.O.Z 2 M ,.q.q.q.q.q.q.q.q.q.q.q.q.q.q.q.q.q.u.l.B.",
"q.q.q.q.q.3.;.S 2 M >./ 2 n %.w.w.w.e.s.B.B.B.B.B.B.B.B.B.B.B.B.B.B.%.e % 9 q q 2 % B 1.q.q.q.q.q.q.q.q.q.q.q.q.q.q.q.q.q.u.l.B.",
"q.q.q.q.q.q.9.' 4 g ) B 2 H i.B.B.B.B.B.B.B.B.B.B.B.B.B.B.B.B.B.B.B.e.G e X     * g ) 3.q.q.q.q.q.q.q.q.q.q.q.q.q.q.q.q.q.u.l.B.",
"q.q.q.q.q.q.9.' 3 % 4 = & H d.B.B.B.B.B.B.B.B.B.B.B.B.B.B.B.B.B.B.B.h.t...8   . h { ,.9.q.q.q.q.q.q.q.q.q.q.q.q.q.q.q.q.q.u.l.B.",
"q.q.q.q.q.q.q.*.B 9 X 5 n #.h.B.B.B.B.B.B.B.B.B.B.B.B.B.B.B.B.B.B.B.B.B.e.G e & d _ >.8.q.q.q.q.q.q.q.q.q.q.q.q.q.q.q.q.q.u.l.B.",
"q.q.q.q.q.q.q.5.>.S 2 n &.i.n.B.B.B.B.B.B.B.B.B.B.B.B.B.B.B.B.B.B.B.B.B.z.t...5 % 9 W 1.q.q.q.q.q.q.q.q.q.q.q.q.q.q.q.q.q.u.l.B.",
"q.q.q.q.q.q.q.q.9._ 7 G s.B.B.B.B.B.B.B.B.B.B.B.B.B.B.B.B.B.B.B.B.B.B.B.B.B.w.H e % d ) :.8.q.q.q.q.q.q.q.q.q.q.q.q.q.q.q.u.l.B.",
"q.q.q.q.q.q.q.q.7.) 6 G s.B.B.B.B.B.B.B.B.B.B.B.B.B.B.B.B.B.B.B.B.B.B.B.B.B.z.t. .5 % 7 Q 3.q.q.q.q.q.q.q.q.q.q.q.q.q.q.q.u.l.B.",
"q.q.q.q.q.q.q.,.] v - G s.B.B.B.B.B.B.B.B.B.B.B.B.B.B.B.B.B.B.B.B.B.B.B.B.B.B.n.w.H e & B 2.q.q.q.q.q.q.q.q.q.q.q.q.q.q.q.u.l.B.",
"q.q.q.q.q.q.q.} d % $ G s.B.B.B.B.B.B.B.B.B.B.B.B.B.B.B.B.B.B.B.B.B.B.B.B.B.B.B.z.y. .5 B 2.q.q.q.q.q.q.q.q.q.q.q.q.q.q.q.u.l.B.",
"q.q.q.q.q.q.9.' 2   X G s.B.B.B.B.B.B.B.B.B.B.B.B.B.B.B.B.B.B.B.B.B.B.B.B.B.B.B.B.c.o.7 C 2.q.q.q.q.q.q.q.q.q.q.q.q.q.q.q.u.l.B.",
"q.q.q.q.q.q.9.' 2   X G s.B.B.B.B.B.B.B.B.B.B.B.B.B.B.B.B.B.B.B.B.B.B.B.B.B.B.B.n.d...7 B 2.q.q.q.q.q.q.q.q.q.q.q.q.q.q.q.u.l.B.",
"q.q.q.q.q.q.9.' 2   X G s.B.B.B.B.B.B.B.B.B.B.B.B.B.B.B.B.B.B.B.B.B.B.B.B.B.B.n.t.o.n - B 2.q.q.q.q.q.q.q.q.q.q.q.q.q.q.q.u.l.B.",
"q.q.q.q.q.q.9.' 2 . - H i.B.B.B.B.B.B.B.B.B.B.B.B.B.B.B.B.B.B.B.B.B.B.B.B.B.n.d.o.r & = S 2.q.q.q.q.q.q.q.q.q.q.q.q.q.q.q.u.l.B.",
"q.q.q.q.q.q.9.' 3 8 G %.z.B.B.B.B.B.B.B.B.B.B.B.B.B.B.B.B.B.B.B.B.B.B.B.B.B.t.o.n & 7 C | 7.q.q.q.q.q.q.q.q.q.q.q.q.q.q.q.u.l.B.",
"q.q.q.q.q.q.9.' 7 n &.i.n.B.B.B.B.B.B.B.B.B.B.B.B.B.B.B.B.B.B.B.B.B.B.B.n.d.#.t & = B >.8.q.q.q.q.q.q.q.q.q.q.q.q.q.q.q.q.u.l.B.",
"q.q.q.q.q.q.q.' 4 e H %.z.B.B.B.B.B.B.B.B.B.B.B.B.B.B.B.B.B.B.B.B.B.B.B.t.X.n & 7 Z O.8.q.q.q.q.q.q.q.q.q.q.q.q.q.q.q.q.q.u.l.B.",
"3.3.3.3.3.3.1.( 2 . - G t.d.d.z.B.B.B.B.B.B.B.B.B.B.B.B.B.B.B.B.B.B.n.d.#.t X . k O.,.2.3.3.3.3.3.3.3.3.3.3.3.3.3.4.8.q.q.u.l.B.",
"Z Z Z Z Z Z C h $     e F H J &.c.B.B.B.B.B.B.B.B.B.B.B.B.B.B.B.B.B.y.X.c &     3 M Z Z Z Z Z Z Z Z Z Z Z Z Z Z Z ~ >.q.q.u.l.B.",
"5 5 5 5 5 5 5 1 - & & - 5 - - H t.i.s.s.s.s.s.s.s.s.s.s.s.s.s.s.s.s.#.t & - - - 2 5 7 7 7 7 7 7 7 7 7 7 7 7 7 5 & 9 _ ,.1.6.j.B.",
"H H H H H H H H H H H H H t & e F G G G G G G G G G G G G G G G G G c & 8 H X.X.X.X.X.X.X.X.X.X.X.X.X.X.X.X.X.J e % g B B ^ r.B.",
"e.e.e.e.e.e.e.e.e.e.e.e.w.J 8 5 5 5 5 5 5 5 5 5 5 5 5 5 5 5 5 5 5 5 5 5 F e.c.z.z.z.z.z.z.z.z.z.z.z.z.z.z.z.c.t.G 5 5 8 8 m w.B.",
"h.h.h.h.h.h.h.i.t.t.t.t.e.$. .J J J J J J J J J J J J J J J J J J J  .o.&.h.B.B.B.B.B.B.B.B.B.B.B.B.B.B.B.B.B.z.&.o.o.o.o.$.s.B.",
"B.B.B.B.B.B.B.h.y.t.t.t.t.e.e.e.e.e.e.e.e.e.e.e.e.e.e.e.e.e.e.e.e.t.y.h.n.B.B.B.B.B.B.B.B.B.B.B.B.B.B.B.B.B.B.B.n.c.c.c.c.n.B.B.",
"B.B.B.B.B.B.B.h.y.t.t.t.t.t.t.t.t.t.t.t.t.t.t.t.t.t.t.t.t.t.t.t.y.d.z.n.B.B.B.B.B.B.B.B.B.B.B.B.B.B.B.B.B.B.B.B.B.B.B.B.B.B.B.B.",
"B.B.B.B.B.B.B.z.y.y.y.t.t.t.t.t.t.t.t.t.t.t.t.t.t.t.y.y.y.y.y.y.s.c.B.B.B.B.B.B.B.B.B.B.B.B.B.B.B.B.B.B.B.B.B.B.B.B.B.B.B.B.B.B.",
"B.B.B.B.B.B.B.n.z.h.h.s.t.t.t.t.t.t.t.t.t.t.t.t.t.i.h.h.h.h.h.h.z.n.B.B.B.B.B.B.B.B.B.B.B.B.B.B.B.B.B.B.B.B.B.B.B.B.B.B.B.B.B.B.",
"B.B.B.B.B.B.B.B.B.B.B.h.y.y.y.y.y.y.y.y.y.y.y.y.s.z.B.B.B.B.B.B.B.B.B.B.B.B.B.B.B.B.B.B.B.B.B.B.B.B.B.B.B.B.B.B.B.B.B.B.B.B.B.B.",
"B.B.B.B.B.B.B.B.B.B.B.n.z.z.z.z.z.z.z.z.z.z.z.z.z.n.B.B.B.B.B.B.B.B.B.B.B.B.B.B.B.B.B.B.B.B.B.B.B.B.B.B.B.B.B.B.B.B.B.B.B.B.B.B.",
"B.B.B.B.B.B.B.B.B.B.B.B.B.B.B.B.B.B.B.B.B.B.B.B.B.B.B.B.B.B.B.B.B.B.B.B.B.B.B.B.B.B.B.B.B.B.B.B.B.B.B.B.B.B.B.B.B.B.B.B.B.B.B.B.",
"B.B.B.B.B.B.B.B.B.B.B.B.B.B.B.B.B.B.B.B.B.B.B.B.B.B.B.B.B.B.B.B.B.B.B.B.B.B.B.B.B.B.B.B.B.B.B.B.B.B.B.B.B.B.B.B.B.B.B.B.B.B.B.B.",
"B.B.B.B.B.B.B.B.B.B.B.B.B.B.B.B.B.B.B.B.B.B.B.B.B.B.B.B.B.B.B.B.B.B.B.B.B.B.B.B.B.B.B.B.B.B.B.B.B.B.B.B.B.B.B.B.B.B.B.B.B.B.B.B."
};
