/* XPM */
static char *c980c88e83b244f5f7b8f662e6ce2096spZov2Kwdym2xWIt[] = {
/* columns rows colors chars-per-pixel */
"64 64 140 2 ",
"   c #0D0807",
".  c #0D0D0D",
"X  c #150502",
"o  c #1A0401",
"O  c #0D0F10",
"+  c #0F1112",
"@  c #131414",
"#  c #181717",
"$  c #111618",
"%  c #161A1B",
"&  c #1B1B1C",
"*  c #270601",
"=  c #2D0A04",
"-  c #350902",
";  c #3A0901",
":  c #201B1B",
">  c #181F21",
",  c #1C2224",
"<  c #1E2629",
"1  c #1E282B",
"2  c #242424",
"3  c #282827",
"4  c #22292B",
"5  c #2A2B2B",
"6  c #242F32",
"7  c #263236",
"8  c #283337",
"9  c #29363A",
"0  c #2C3A3F",
"q  c #333333",
"w  c #373738",
"e  c #3F3F3F",
"r  c #440900",
"t  c #4C0A00",
"y  c #5C0D00",
"u  c #6A0F00",
"i  c #324247",
"p  c #34454A",
"a  c #37484E",
"s  c #394C52",
"d  c #3E5258",
"f  c #424242",
"g  c #4A4A4A",
"h  c #42575E",
"j  c #42585E",
"k  c #535353",
"l  c #5A5A5A",
"z  c #475D64",
"x  c #4C636C",
"c  c #4E6770",
"v  c #4F6971",
"b  c #516B74",
"n  c #57737C",
"m  c #626262",
"M  c #6D6D6D",
"N  c #767676",
"B  c #7D7D7D",
"V  c #8B1400",
"C  c #941600",
"Z  c #9E1700",
"A  c #9F1800",
"S  c #AB1A00",
"D  c #C61E00",
"F  c #C91F00",
"G  c #D32000",
"H  c #E52300",
"J  c #E92400",
"K  c #5A7780",
"L  c #5C7A83",
"P  c #607F89",
"I  c #63838D",
"U  c #73868C",
"Y  c #658691",
"T  c #678893",
"R  c #698B96",
"E  c #6B8E99",
"W  c #6E929D",
"Q  c #7196A2",
"!  c #7499A5",
"~  c #779CA9",
"^  c #799FAC",
"/  c #7AA2AE",
"(  c #7DA5B2",
")  c #848484",
"_  c #8B8B8B",
"`  c #908F8F",
"'  c #90908F",
"]  c #949494",
"[  c #9A9A9A",
"{  c #81AAB7",
"}  c #83ACBA",
"|  c #A2A2A2",
" . c #ACACAC",
".. c #B3B3B3",
"X. c #BCBCBC",
"o. c #89B6C4",
"O. c #8DBBCA",
"+. c #90BECD",
"@. c #94C3D3",
"#. c #9ACBDB",
"$. c #9FD2E4",
"%. c #A1D4E6",
"&. c #A3D7E8",
"*. c #A5DAEC",
"=. c #B3DBE9",
"-. c #ACE3F5",
";. c #AEE6F8",
":. c #B3ECFF",
">. c #C3C3C3",
",. c #CBCBCB",
"<. c #CFD4D6",
"1. c #D7D7D7",
"2. c gray83",
"3. c #D3D3D3",
"4. c #DDDDDD",
"5. c gray87",
"6. c #DFDFDF",
"7. c #DADADA",
"8. c #C4F0FF",
"9. c #C4F0FF",
"0. c #E1E1E1",
"q. c #E2E2E2",
"w. c #E4E4E4",
"e. c #E7E7E8",
"r. c gray92",
"t. c gray91",
"y. c #ECECEC",
"u. c #ECECEC",
"i. c #EFEFF0",
"p. c #E4F2F7",
"a. c #EAF9FF",
"s. c #EAF9FF",
"d. c gray95",
"f. c #F3F3F3",
"g. c #F7F7F8",
"h. c #F8F8F8",
"j. c #F9F9F9",
"k. c gray98",
"l. c white",
"z. c #FFFFFF",
/* pixels */
":.:.:.:.:.:.:.:.:.:.:.:.:.:.:.:.:.:.:.:.:.:.:.:.:.:.:.:.:.:.:.:.:.:.:.:.:.:.:.:.:.:.:.:.:.:.:.:.:.:.:.:.:.:.:.:.:.:.:.:.:.8.s.l.",
":.:.:.:.:.:.:.:.:.:.:.:.:.:.:.:.:.:.:.:.:.:.:.:.:.:.:.:.:.:.:.:.:.:.:.:.:.:.:.:.:.:.:.:.:.:.:.:.:.:.:.:.:.:.:.:.:.:.:.:.:.8.s.l.",
":.:.:.:.:.:.:.:.:.:.:.:.:.:.:.:.:.:.:.:.:.:.:.:.:.:.:.:.:.:.:.:.:.:.:.:.:.:.:.:.:.:.:.:.:.:.:.:.:.:.:.:.:.:.:.:.:.:.:.:.:.8.s.l.",
":.:.:.:.:.:.:.:.:.:.:.:.:.:.:.:.:.:.:.:.:.:.:.:.:.:.:.:.:.:.:.:.:.:.:.:.:.:.:.:.:.:.:.:.:.:.:.:.:.:.:.:.:.:.:.:.:.:.:.:.:.8.s.l.",
":.:.:.:.:.:.:.:.:.:.:.:.:.:.:.:.:.:.:.:.:.:.:.:.:.:.:.:.:.:.:.:.:.:.:.:.:.:.:.:.:.:.:.:.:.:.:.:.:.:.:.:.:.:.:.:.:.:.:.:.:.8.s.l.",
":.:.:.:.:.:.:.:.:.:.:.:.:.:.:.:.:.:.:.:.:.:.:.:.:.:.:.:.:.:.:.:.:.:.:.:.:.:.:.:.:.:.:.:.:.:.:.:.:.:.:.:.:.:.:.:.:.:.:.:.:.8.s.l.",
":.:.:.:.:.:.:.:.:.:.:.:.:.:.:.:.:.:.:.:.:.:.:.:.:.:.:.:.:.:.:.:.:.:.:.:.:.:.:.:.:.:.:.:.:.:.:.:.:.:.:.:.:.:.:.:.:.:.:.:.:.8.s.l.",
":.:.:.:.:.:.:.:.:.:.:.:.:.:.:.:.:.:.:.:.:.:.:.:.:.:.:.:.:.:.:.:.:.:.:.:.:.:.:.:.:.:.:.:.:.:.:.:.:.:.:.:.:.:.:.:.:.:.:.:.:.8.s.l.",
":.:.:.:.:.:.:.:.:.:.:.:.:.:.:.:.:.:.:.:.:.:.:.:.:.:.:.:.:.:.:.:.:.:.:.:.:.:.:.:.:.:.:.:.:.:.:.:.:.:.:.:.:.:.:.:.:.:.:.:.:.8.s.l.",
":.:.:.:.:.:.:.:.:.:.:.:.:.:.:.:.:.:.:.:.:.:.:.:.:.:.:.:.:.:.:.:.:.:.:.:.:.:.:.:.:.:.:.:.:.:.:.:.:.:.:.:.:.:.:.:.:.:.:.:.:.8.s.l.",
":.:.:.:.:.:.:.:.:.:.:.:.:.:.:.:.:.:.:.:.:.:.:.:.:.:.:.:.:.:.:.:.:.:.:.:.:.:.:.:.:.:.:.:.:.:.:.:.:.:.:.:.:.:.:.:.:.:.:.:.:.8.s.l.",
":.:.:.:.:.:.:.:.:.:.:.:.:.:.:.:.:.:.:.:.:.:.:.:.:.:.:.:.:.:.:.:.:.:.:.:.:.:.:.:.:.:.:.:.:.:.:.:.:.:.:.:.:.:.:.:.:.:.:.:.:.8.s.l.",
":.:.:.:.:.:.:.:.:.:.:.:.:.:.:.:.:.:.:.:.:.:.:.:.:.:.:.:.:.:.:.:.:.:.:.:.:.:.:.:.:.:.:.:.:.:.:.:.:.:.:.:.:.:.:.:.:.:.:.:.:.8.s.l.",
":.:.:.:.:.:.:.:.:.:.:.:.:.:.:.:.:.:.:.:.:.:.:.:.:.:.:.:.:.:.:.:.:.:.:.:.:.:.:.:.:.:.:.:.:.:.:.:.:.:.:.:.:.:.:.:.:.:.:.:.:.8.s.l.",
":.:.:.:.:.:.:.:.:.:.:.:.:.:.:.:.:.:.:.:.:.:.:.:.:.:.:.:.:.:.:.:.:.:.:.:.:.:.:.:.:.:.:.:.:.:.:.:.:.:.:.:.:.:.:.:.:.:.:.:.:.8.s.l.",
":.:.:.:.:.:.:.:.:.:.:.:.:.:.:.:.:.:.:.:.:.:.:.:.:.:.:.:.:.:.:.:.:.:.:.:.:.:.:.:.:.:.:.:.:.:.:.:.:.:.:.:.:.:.:.:.:.:.:.:.:.8.s.l.",
":.:.:.:.:.:.:.:.:.:.:.:.:.:.:.:.:.:.:.:.:.:.:.:.:.:.:.:.:.:.:.:.:.:.:.:.:.:.:.:.:.:.:.:.:.:.:.:.:.:.:.:.:.:.:.:.:.:.:.:.:.8.s.l.",
":.:.:.:.:.:.:.:.:.:.:.:.:.:.:.:.:.:.:.:.:.:.:.:.:.:.:.:.:.:.:.:.:.:.:.:.:.:.:.:.:.:.:.:.:.:.:.:.:.:.:.:.:.:.:.:.:.:.:.:.:.8.s.l.",
":.:.:.:.:.:.:.:.:.:.:.:.:.:.:.:.:.:.:.:.:.:.:.:.:.:.:.:.:.:.:.:.:.:.:.:.:.:.:.:.:.:.:.:.:.:.:.:.:.:.:.:.:.:.:.:.:.:.:.:.:.8.s.l.",
":.:.:.:.:.:.:.:.:.:.:.:.:.:.:.:.:.:.:.:.:.:.:.:.:.:.:.:.:.:.:.:.:.:.:.:.:.:.:.:.:.:.:.:.:.:.:.:.:.:.:.:.:.:.:.:.:.:.:.:.:.8.s.l.",
":.:.:.:.:.:.:.:.:.:.:.:.:.:.:.:.:.:.:.:.:.:.:.:.:.:.:.:.:.:.:.:.:.:.:.:.:.:.:.:.:.:.:.:.:.:.:.:.:.:.:.:.:.:.:.:.:.:.:.:.:.8.s.l.",
":.:.:.:.:.:.:.:.:.:.:.:.:.:.:.:.:.:.:.:.:.:.:.:.:.:.:.:.:.:.:.:.:.:.:.:.:.:.:.:.:.:.:.:.:.:.:.:.:.:.:.:.:.:.:.:.:.:.:.:.:.8.s.l.",
":.:.:.:.:.:.:.:.:.:.:.:.:.:.:.:.:.:.:.:.:.:.:.:.:.:.:.:.:.:.:.:.:.:.:.:.:.:.:.:.:.:.:.:.:.:.:.:.:.:.:.:.:.:.:.:.:.:.:.:.:.8.s.l.",
":.:.:.:.:.:.:.:.:.:.:.:.:.:.:.:.:.:.:.:.:.:.:.:.:.:.:.:.:.:.:.:.:.:.:.:.:.:.:.:.:.:.:.:.:.:.:.:.:.:.:.:.:.:.:.:.:.:.:.:.:.8.s.l.",
":.:.:.:.:.:.:.:.:.:.:.:.:.:.:.:.:.:.:.:.:.:.:.:.:.:.:.:.:.:.:.:.:.:.:.:.:.:.:.:.:.:.:.:.:.:.:.:.:.:.:.:.:.:.:.:.:.:.:.:.:.8.s.l.",
":.:.:.:.:.:.:.:.:.:.:.:.:.:.:.:.:.:.:.:.:.:.:.:.:.:.:.:.:.:.:.:.:.:.:.:.:.:.:.:.:.:.:.:.:.:.:.:.:.:.:.:.:.:.:.:.:.:.:.:.:.8.s.l.",
":.:.:.:.:.:.:.:.:.:.:.:.:.:.:.:.:.:.:.:.:.:.:.:.:.:.:.:.:.:.:.:.:.:.:.:.:.:.:.:.:.:.:.:.:.:.:.:.:.:.:.:.:.:.:.:.:.:.:.:.:.8.s.l.",
":.:.:.:.:.:.:.:.:.:.:.:.:.:.:.:.:.:.:.:.:.:.:.:.:.:.:.:.:.:.:.:.:.:.:.:.:.:.:.:.:.:.:.:.:.:.:.:.:.:.:.:.:.:.:.:.:.:.:.:.:.8.s.l.",
":.:.:.:.:.:.:.:.:.:.:.:.:.:.:.:.:.:.:.:.:.:.:.:.:.:.:.:.:.:.:.:.:.:.:.:.:.:.:.:.&.@.O.O.O.O.O.O.O.O.O.@.&.:.:.:.:.:.:.:.:.8.s.l.",
":.:.:.:.:.:.:.:.:.:.:.:.:.:.:.:.:.:.:.:.:.:.:.:.:.:.:.:.:.:.:.:.:.:.:.:.:.:.:.;.} z p p p p p p p p p h ( -.:.:.:.:.:.:.:.8.s.l.",
":.:.:.:.:.:.:.:.:.:.:.:.:.:.:.:.:.:.:.:.:.:.:.:.:.:.:.:.:.:.:.:.:.:.:.:.:.:.:.;.W , X - ; - - - ; - o % Y -.:.:.:.:.:.:.:.8.s.l.",
":.:.:.:.:.:.:.:.:.:.:.:.:.:.:.:.:.:.:.:.:.:.:.:.:.:.:.:.:.:.:.:.:.:.:.:.:.:.:.;.W , r C S S S S S Z t & Y -.:.:.:.:.:.:.:.8.s.l.",
":.:.:.:.:.:.:.:.:.:.:.:.:.:.:.:.:.:.:.:.:.:.:.:.:.:.:.:.:.:.:.:.:.:.:.:.:.:.:.;.W 2 y F H H H H J G u : Y -.:.:.:.:.:.:.:.8.s.l.",
":.:.:.:.:.:.:.:.:.:.:.:.:.:.:.:.:.:.:.:.:.:.:.:.:.:.:.:.:.:.:.:.:.:.:.:.:.:.:.-.W , y D H H H J J G u : Y -.:.:.:.:.:.:.:.8.s.l.",
":.:.:.:.:.:.:.:.:.:.:.:.:.:.:.:.:.:.:.:.:.:.:.:.:.:.:.:.:.:.:.:.:.:.&.o.( ( ( / c & y D H H H J J G u : Y -.:.:.:.:.:.:.:.8.s.l.",
":.:.:.:.:.:.:.:.:.:.:.:.:.:.:.:.:.:.:.:.:.:.:.:.:.:.:.:.:.:.:.:.:.:.o.j 8 8 9 8 ,   y F H H H H J G u : Y -.:.:.:.:.:.:.:.8.s.l.",
":.:.:.:.:.:.:.:.:.:.:.:.:.:.:.:.:.:.:.:.:.:.:.:.:.:.:.:.*.o./ / / ^ n , # f k g q . ; V Z Z Z Z A C t & Y -.:.:.:.:.:.:.:.8.s.l.",
":.:.:.:.:.:.:.:.:.:.:.:.:.:.:.:.:.:.:.:.:.:.:.:.:.:.:.:.@.x 6 6 8 8 < O f  .,.>.B 2 X = = = = = = * X & Y -.:.:.:.:.:.:.:.8.s.l.",
":.:.:.:.:.:.:.:.:.:.:.:.:.:.:.:.:.:.:.:.:.:.:.:.:.:.:.:.O.p # f l l l l _ 5.w..._ m k g g g g f 2 . 4 z { -.:.:.:.:.:.:.:.8.s.l.",
":.:.:.:.:.:.:.:.:.:.:.:.;.;.;.;.;.:.:.:.:.:.:.:.;.;.;.;.o.i q ] ,.,.,.3.w.d...k M X.>. . .....| k & v +.*.:.:.:.:.:.:.:.:.8.s.l.",
":.:.:.:.:.:.:.:.:.:.:.@.~ W W W ! @.;.:.:.:.-.o.Q W W W n 4 2 N [ | X.u.l.k.| 5 l 2.,.]  .7.5.>.m , P -.:.:.:.:.:.:.:.:.:.8.s.l.",
":.:.:.:.:.:.:.:.-.-.*.W 9 < 4 < 8 Y &.-.-.-.#.b 1 < 4 4 , + + 2 3 2 m ,.k.k. .w m 2.| f B 5.t.>.m , L &.-.-.:.:.:.:.:.:.:.8.s.l.",
":.:.:.:.:.:.:.#.! R I s + 5 k q + p I R R R K 8 @ f m l k k k k e @ 3 N ..e.,.) | 5.] 3 M w.t.>.m % a I R Q @.:.:.:.:.:.:.8.s.l.",
":.:.:.:.-.-.*.! 0 , < % & M X.N & % < 4 4 4 < $ 5 ] 2.>.X.X.X.X._ q # 2 M 2.f.e.t.i.[ q N w.u.,.M & % , > 9 ! -.:.:.:.:.:.8.s.l.",
":.:.:.#.! I I d $ 3 m M N ..t.X.N M M M M M M M ) ,.k.u.e.e.e.e.,._ M N [ w.l.l.l.f.>.)  .u.f.5.| m l k 2 , E -.:.:.:.:.:.8.s.l.",
":.:.:.} i % < & & m ,.e.e.d.k.d.e.e.e.e.e.e.e.e.t.f.l.l.k.k.k.k.f.t.e.e.u.k.l.l.l.f.u.e.u.k.l.f.5.>.X. .k < I &.;.:.:.:.:.8.s.l.",
":.:.:.( 8 2 m N B  .u.l.l.l.l.l.l.l.l.l.l.l.l.l.l.l.l.l.l.l.l.l.l.l.l.l.l.l.l.l.l.k.k.k.l.l.l.l.d.t.5.X.l % a T @.:.:.:.:.8.s.l.",
":.:.:.( 8 g >.t.e.u.k.l.l.l.l.l.l.l.l.l.l.l.l.l.l.l.l.l.l.l.l.l.l.l.l.l.l.l.l.k.l.l.l.k.l.l.l.l.l.f.e.X.m & + 8 W &.;.:.:.8.s.l.",
":.:.:.( 8 k 2.k.u.t.t.t.t.t.t.d.l.l.l.l.l.l.l.l.l.l.l.l.l.l.l.l.k.u.t.t.t.t.t.t.d.l.l.l.l.l.l.l.l.l.t.,.] m 3 + a Y @.:.:.8.s.l.",
"&.&.%.Q 6 g X.7.,.>.>.>.>.>.>.w.k.l.l.l.l.l.l.l.l.l.l.l.l.l.k.k.d.5.3.>.>.>.>.>.3.w.t.t.t.t.t.t.t.e.3.>...[ k # O 9 / :.:.8.s.l.",
"b b b s $ 2 l M m m m m m m M  .d.l.l.l.l.l.l.l.l.l.l.l.k.u.t.e.w.2...N m m m m m N N N N N N N N N M m m m M m 3 4 ~ :.:.8.s.l.",
"3 3 3 2 & & 2 2 2 2 2 2 2 # & N 3.e.w.w.w.w.w.w.w.w.w.w.7.,.X.X.X.X._ 5 @ & 2 2 2 2 2 2 2 2 2 2 2 2 2 2 # 2 M ] e < R #.$.=.p.l.",
"' ' ` _ B N N N N N N N N e @ q m M M M M M M M M M M M M l l l l l e @ 2 m N N N N N N N N N N N N N M q . q g 2 + i x x U <.l.",
"d.d.d.t.2.,.,.,.,.,.,.,.X.N 3 , 2 2 2 2 2 2 2 2 2 2 2 2 2 2 2 2 2 2 2 & k  .,.,.,.,.,.,.,.,.,.,.,.,.,...m 2 & 2 2 2 2 3 3 l >.l.",
"l.l.l.k.d.u.u.u.u.w.2.2.,. .) B B B B B B B B B B B B B B B B B B B B B [ >.2.3.3.3.3.3.3.3.3.3.3.3.2.,.| ) B ) _ [ [ [ [  .w.l.",
"l.l.l.l.l.l.l.l.l.u.5.7.7.2.3.3.3.3.3.3.3.3.3.3.3.,.,.,.,.,.,.,.,.,.,.,.,.3.2.7.7.7.7.7.7.7.7.7.7.7.7.7.2.3.3.2.t.f.f.f.f.k.l.l.",
"l.l.l.l.l.l.l.l.l.k.d.u.u.u.u.u.u.u.u.u.u.u.u.u.t.5.2.3.3.3.3.3.3.3.3.3.3.3.5.t.u.u.u.u.u.u.u.u.u.u.u.u.u.u.u.d.k.l.l.l.l.l.l.l.",
"l.l.l.l.l.l.l.l.l.l.l.l.l.l.l.l.l.l.l.l.l.l.l.l.k.e.7.7.7.7.7.7.7.7.7.7.7.7.e.g.l.l.l.l.l.l.l.l.l.l.l.l.l.l.l.l.l.l.l.l.l.l.l.l.",
"l.l.l.l.l.l.l.l.l.l.l.l.l.l.l.l.l.l.l.l.l.l.l.l.l.f.d.u.u.u.u.u.u.u.u.u.u.d.f.l.l.l.l.l.l.l.l.l.l.l.l.l.l.l.l.l.l.l.l.l.l.l.l.l.",
"l.l.l.l.l.l.l.l.l.l.l.l.l.l.l.l.l.l.l.l.l.l.l.l.l.l.l.l.l.l.l.l.l.l.l.l.l.l.l.l.l.l.l.l.l.l.l.l.l.l.l.l.l.l.l.l.l.l.l.l.l.l.l.l.",
"l.l.l.l.l.l.l.l.l.l.l.l.l.l.l.l.l.l.l.l.l.l.l.l.l.l.l.l.l.l.l.l.l.l.l.l.l.l.l.l.l.l.l.l.l.l.l.l.l.l.l.l.l.l.l.l.l.l.l.l.l.l.l.l.",
"l.l.l.l.l.l.l.l.l.l.l.l.l.l.l.l.l.l.l.l.l.l.l.l.l.l.l.l.l.l.l.l.l.l.l.l.l.l.l.l.l.l.l.l.l.l.l.l.l.l.l.l.l.l.l.l.l.l.l.l.l.l.l.l.",
"l.l.l.l.l.l.l.l.l.l.l.l.l.l.l.l.l.l.l.l.l.l.l.l.l.l.l.l.l.l.l.l.l.l.l.l.l.l.l.l.l.l.l.l.l.l.l.l.l.l.l.l.l.l.l.l.l.l.l.l.l.l.l.l.",
"l.l.l.l.l.l.l.l.l.l.l.l.l.l.l.l.l.l.l.l.l.l.l.l.l.l.l.l.l.l.l.l.l.l.l.l.l.l.l.l.l.l.l.l.l.l.l.l.l.l.l.l.l.l.l.l.l.l.l.l.l.l.l.l."
};
