/* XPM */
static char *_dc79d3a9f8a4af6a3a7d86aa5841f2e34D3wmQmvS6I9nrB[] = {
/* columns rows colors chars-per-pixel */
"64 64 128 2 ",
"   c #150000",
".  c #1B0203",
"X  c #200608",
"o  c #260C0E",
"O  c #2C1315",
"+  c #2E1618",
"@  c #2D1C1D",
"#  c #331817",
"$  c #331B1B",
"%  c #381D1C",
"&  c #2F1F20",
"*  c #361F21",
"=  c #372122",
"-  c #382123",
";  c #3D2E2F",
":  c #3E3434",
">  c #4C302D",
",  c #422E30",
"<  c #483436",
"1  c #513D3E",
"2  c #4F4F4E",
"3  c #564446",
"4  c #574648",
"5  c #504F4E",
"6  c #5E4E4F",
"7  c #4F504F",
"8  c #5B4F50",
"9  c #515251",
"0  c #5C5957",
"q  c #5C5C5B",
"w  c #634741",
"e  c #6C4E47",
"r  c #614F4E",
"t  c #6D4F48",
"y  c #6D5049",
"u  c #625253",
"i  c #6F5851",
"p  c #64595A",
"a  c #6C5B5C",
"s  c #755850",
"d  c #7B5F57",
"f  c #76605C",
"g  c #7E6158",
"h  c #5C6361",
"j  c #6F6363",
"k  c #756364",
"l  c #726862",
"z  c #7B6C6C",
"x  c #7C6F70",
"c  c #846F6A",
"v  c #90766D",
"b  c #847677",
"n  c #8E7B71",
"m  c #857C7D",
"M  c #9E8073",
"N  c #92807B",
"B  c #A6897D",
"V  c #738582",
"C  c #798C88",
"Z  c #7C928F",
"A  c #7D9490",
"S  c #898081",
"D  c #948C8D",
"F  c #998E8F",
"G  c #849D99",
"H  c #9E9394",
"J  c #9E999A",
"K  c #AF9182",
"L  c #B19384",
"P  c #B99A8A",
"I  c #A69D9E",
"U  c #B19F97",
"Y  c #8FB0AB",
"T  c #93B4AF",
"R  c #AFA6A7",
"E  c #ADAAAA",
"W  c #B0A7A7",
"Q  c #B0A7A8",
"!  c #B3AEAE",
"~  c #A3B2AF",
"^  c #B5B2B3",
"/  c gray",
"(  c #CDAE9B",
")  c #D0B19E",
"_  c #C4B0A6",
"`  c #CABCB4",
"'  c #C1BEBE",
"]  c #E4C4AF",
"[  c #E5C5B0",
"{  c #E8C7B2",
"}  c #EACAB4",
"|  c #F6D5BE",
" . c #9FC7C1",
".. c #9FC8C3",
"X. c #A1CAC4",
"o. c #B0CDC9",
"O. c #A6D2CC",
"+. c #ABDAD3",
"@. c #BFD9D5",
"#. c #AFE0D9",
"$. c #B1E3DC",
"%. c #B4E7E0",
"&. c #B5E9E2",
"*. c #C3C3C3",
"=. c #CDC7C8",
"-. c #C7C8C8",
";. c #CBCBCB",
":. c #D9CEC5",
">. c #D1CECE",
",. c #D6D6D6",
"<. c #D7D8D8",
"1. c #DBDBDB",
"2. c #EBD6C9",
"3. c #FFDEC6",
"4. c #C3E2DE",
"5. c #FFE3CA",
"6. c #FFE8CF",
"7. c #FFEAD0",
"8. c #FFEBDB",
"9. c #CFF1EC",
"0. c #E4E1E2",
"q. c #E8E5E5",
"w. c #E9E9E9",
"e. c #EEECEC",
"r. c #F1F0F0",
"t. c gray96",
"y. c gray98",
"u. c white",
/* pixels */
"$.$.$.$.$.$.$.$.$.$.$.$.$.$.$.$.$.$.$.$.$.$.$.$.$.$.$.$.$.$.$.$.$.$.$.$.$.$.$.$.$.$.$.$.$.$.$.$.$.$.$.$.$.$.$.$.$.$.$.$.$.$.$.$.",
"$.$.$.$.$.$.$.$.$.$.$.$.$.$.$.$.$.$.$.$.$.$.$.$.$.$.$.$.$.$.$.$.$.$.$.$.$.$.$.$.$.$.$.$.$.$.$.$.$.$.$.$.$.$.$.$.$.$.$.$.$.$.$.$.",
"$.$.$.$.$.$.$.$.$.$.$.$.$.$.$.$.$.$.$.$.$.$.$.$.$.$.$.$.$.$.$.$.$.$.$.$.$.$.$.$.$.$.$.$.$.$.$.$.$.$.$.$.$.$.$.$.$.$.$.$.$.$.$.$.",
"$.$.$.$.$.$.$.$.$.$.$.$.$.$.$.$.$.$.$.$.$.$.$.$.$.$.$.$.$.$.$.$.$.$.$.$.$.$.$.$.$.$.$.$.$.$.$.$.$.$.$.$.$.$.$.$.$.$.$.$.$.$.$.$.",
"$.$.$.$.$.$.$.$.$.$.$.$.$.$.$.$.$.$.$.$.$.$.$.$.$.$.$.$.$.$.$.$.$.$.$.$.$.$.$.$.$.$.$.$.$.$.$.$.$.$.$.$.$.$.$.$.$.$.$.$.$.$.$.$.",
"$.$.$.$.$.$.$.$.$.$.$.$.$.$.$.$.$.$.$.$.$.$.$.$.$.$.$.$.$.$.$.$.$.$.$.$.$.$.$.$.$.$.$.$.$.$.$.$.$.$.$.$.$.$.$.$.$.$.$.$.$.$.$.$.",
"$.$.$.$.$.$.$.$.$.$.$.$.$.$.$.$.$.$.$.$.$.$.$.$.$.$.$.$.$.$.$.$.$.$.$.$.$.$.$.$.$.$.$.$.$.$.$.$.$.$.$.$.$.$.$.$.$.$.$.$.$.$.$.$.",
"$.$.$.$.$.$.$.$.$.$.$.$.$.$.$.$.$.$.$.$.$.$.$.$.$.$.$.$.$.$.$.$.$.$.$.$.$.$.$.$.$.$.$.$.$.$.$.$.$.$.$.$.$.$.$.$.$.$.$.$.$.$.$.$.",
"$.$.$.$.$.$.$.$.$.$.$.$.$.$.$.$.$.$.$.$.$.$.$.$.$.$.$.$.$.$.$.$.$.$.$.$.$.$.$.$.$.$.$.$.$.$.$.$.$.$.$.$.$.$.$.$.$.$.$.$.$.$.$.$.",
"$.$.$.$.$.$.$.$.$.$.$.$.$.$.$.$.$.$.$.$.$.$.$.$.$.$.$.$.$.$.$.$.$.$.$.$.$.$.$.$.$.$.$.$.$.$.$.$.$.$.$.$.$.$.$.$.$.$.$.$.$.$.$.$.",
"$.$.$.$.$.$.$.$.$.$.$.$.$.$.$.$.$.$.$.$.$.$.$.$.$.$.$.$.$.$.$.$.$.$.$.$.$.$.$.$.$.$.$.$.$.$.$.$.$.$.$.$.$.$.$.$.$.$.$.$.$.$.$.$.",
"$.$.$.$.$.$.$.$.$.$.$.$.$.$.$.$.$.$.$.$.$.$.$.$.$.$.$.$.$.$.$.$.$.$.$.$.$.$.$.$.$.$.$.$.$.$.$.$.$.$.$.$.$.$.$.$.$.$.$.$.$.$.$.$.",
"$.$.$.$.$.$.$.$.$.$.$.$.$.$.$.$.$.$.$.$.$.$.$.$.$.$.$.$.$.$.$.$.$.$.$.$.$.$.$.$.$.$.$.$.$.$.$.$.$.$.$.$.$.$.$.$.$.$.$.$.$.$.$.$.",
"$.$.$.$.$.$.$.$.$.$.$.$.$.$.$.$.$.$.Y 9 9 9 9 9 9 5 V $.$.$.$.$.$.$.Y 9 9 9 9 9 9 5 V $.$.$.$.$.$.$.$.$.$.$.$.$.$.$.$.$.$.$.$.$.",
"$.$.$.$.$.$.$.$.$.$.$.$.$.$.$.$.$.%.Z               2 $.$.$.$.$.$.&.Z               5 $.$.$.$.$.$.$.$.$.$.$.$.$.$.$.$.$.$.$.$.$.",
"$.$.$.$.$.$.$.$.$.$.$.$.$.$.$.$.$.%.A . . + - = $ + 0 ..X.X.X.X.X.X.C $ $ * - $ X   9 $.$.$.$.$.$.$.$.$.$.$.$.$.$.$.$.$.$.$.$.$.",
"$.$.$.$.$.$.$.$.$.$.$.$.$.$.$.$.$.%.A . . H q.1.^ E b @ @ @ @ @ @ @ 8 E E >.q.=.$   9 $.$.$.$.$.$.$.$.$.$.$.$.$.$.$.$.$.$.$.$.$.",
"$.$.$.$.$.$.$.$.$.$.$.$.$.$.$.$.$.%.A . . Q u.y.;.-.S . . . . . .   4 -.-.e.u.0.-   9 $.$.$.$.$.$.$.$.$.$.$.$.$.$.$.$.$.$.$.$.$.",
"$.$.$.$.$.$.$.$.$.$.$.$.$.$.$.$.$.%.A . . R u.r.D m u . . . . . .   , m m ,.u.0.-   9 $.$.$.$.$.$.$.$.$.$.$.$.$.$.$.$.$.$.$.$.$.",
"$.$.$.$.$.$.$.$.$.$.$.$.$.$.$.$.$.%.A . . W u.0.-   . . . . . . . . . . . W u.0.-   9 $.$.$.$.$.$.$.$.$.$.$.$.$.$.$.$.$.$.$.$.$.",
"$.$.$.$.$.$.$.$.$.$.$.$.$.$.$.$.$.%.A . . R u.0.- . . . . . . . . . . . . R u.0.=   9 $.$.$.$.$.$.$.$.$.$.$.$.$.$.$.$.$.$.$.$.$.",
"$.$.$.$.$.$.$.$.$.$.$.$.$.$.$.$.$.%.A . . 1 a k I W R R R Q Q Q R R R R R b a u o   9 $.$.$.$.$.$.$.$.$.$.$.$.$.$.$.$.$.$.$.$.$.",
"$.$.$.$.$.$.$.$.$.$.$.$.$.$.$.$.$.&.A         $ q.u.u.u.u.u.u.u.u.u.u.u.u.a         9 $.$.$.$.$.$.$.$.$.$.$.$.$.$.$.$.$.$.$.$.$.",
"$.$.$.$.$.$.$.$.$.$.$.$.$.$.$.#.X.X.C - - - * 1 q.u.u.u.u.u.u.u.u.u.u.u.u.x $ - - $ q X.X.+.$.$.$.$.$.$.$.$.$.$.$.$.$.$.$.$.$.$.",
"$.$.$.$.$.$.$.$.$.$.$.$.$.$.$.X.: + j 0.0.0.0.q.u.u.u.u.u.u.u.u.u.u.u.u.u.e.0.0.0.q.I @ @ G $.$.$.$.$.$.$.$.$.$.$.$.$.$.$.$.$.$.",
"$.$.$.$.$.$.$.$.$.$.$.$.$.$.$.X.@   a u.u.u.u.u.u.u.u.u.u.u.u.u.u.u.u.u.u.u.u.u.u.u.W . . A %.$.$.$.$.$.$.$.$.$.$.$.$.$.$.$.$.$.",
"$.$.$.$.$.$.$.$.$.$.$.$.$.$.$.X.@   a u.u.u.u.u.u.u.u.u.u.u.u.u.u.u.u.u.u.u.u.u.u.u.R . . A %.$.$.$.$.$.$.$.$.$.$.$.$.$.$.$.$.$.",
"$.$.$.$.$.$.$.$.$.$.$.$.$.$.$.X.@   a u.u.u.u.u.u.u.u.u.u.u.u.u.u.u.u.u.u.u.u.u.u.u.R . . A %.$.$.$.$.$.$.$.$.$.$.$.$.$.$.$.$.$.",
"$.$.$.$.$.$.$.$.$.$.$.$.$.$.$.X.@   a u.u.u.u.u.u.u.u.u.u.u.u.u.u.u.u.u.u.u.u.u.u.u.R . . A %.$.$.$.$.$.$.$.$.$.$.$.$.$.$.$.$.$.",
"$.$.$.$.$.$.$.$.$.$.$.$.$.$.$.X.@   a u.u.u.u.u.u.u.u.u.u.u.u.u.u.u.u.u.u.u.u.u.u.u.R . . A %.$.$.$.$.$.$.$.$.$.$.$.$.$.$.$.$.$.",
"$.$.$.$.$.$.$.$.$.$.$.$.$.$.$.X.@   a u.u.u.u.u.u.u.u.u.u.u.u.u.u.u.u.u.u.u.u.u.u.u.R . . A &.$.$.$.$.$.$.$.$.$.$.$.$.$.$.$.$.$.",
"$.$.$.$.$.$.$.$.$.$.$.$.$.O.X.T ; O z u.u.y.t.y.y.y.r.0.0.r.y.t.q.0.w.y.y.y.y.y.u.u.! $ $ C X.X.#.$.$.$.$.$.$.$.$.$.$.$.$.$.$.$.",
"$.$.$.$.$.$.$.$.$.$.$.$.$.h + ; J E -.u.u.<.-.-.-.-.D - - D ;.^ < $ a -.-.-.-.;.y.u.0.E E 8 + : X.$.$.$.$.$.$.$.$.$.$.$.$.$.$.$.",
"$.$.$.$.$.$.$.$.$.$.$.$.$.9   + E *.,.u.u.<.*.*.*.-.m     m *.E O   3 *.*.*.*.-.y.u.w.*.*.4   @ X.$.$.$.$.$.$.$.$.$.$.$.$.$.$.$.",
"$.$.$.$.$.$.$.$.$.$.$.$.$.9   $ ' <.1.w.w.R m m m m z y y U :.` d e f m m m m D 1.w.0.,.,.6   @ X.$.$.$.$.$.$.$.$.$.$.$.$.$.$.$.",
"$.$.$.$.$.$.$.$.$.$.$.$.$.9   - 0.u.w.*.*.4   . .   y 3.3.3.3.3.3.5.K . . . . $ E *.,.u.u.a   @ X.$.$.$.$.$.$.$.$.$.$.$.$.$.$.$.",
"$.$.$.$.$.$.$.$.$.$.$.$.$.9   - 0.u.w.*.' 4   . .   y 3.3.3.3.3.3.5.K . . . . $ E *.,.u.u.a   @ X.$.$.$.$.$.$.$.$.$.$.$.$.$.$.$.",
"$.$.$.$.$.$.$.$.$.$.$.$.$.9   $ ' <.R 4 4 v L M O   y 3.3.3.3.3.3.5.K . . d L B r 3 b ,.,.6   @ X.$.$.$.$.$.$.$.$.$.$.$.$.$.$.$.",
"$.$.$.$.$.$.$.$.$.$.$.$.$.9   + E -.m     L 7.} %   t 3.3.3.3.3.3.5.K . . L 7.} $   4 *.*.4   @ X.$.$.$.$.$.$.$.$.$.$.$.$.$.$.$.",
"$.$.$.$.$.$.$.$.$.$.$.$.$.h + ; J ! x . . M } ) > # g 3.3.3.3.3.3.5.P % % B } ( $   1 E E 8 + : X.$.$.$.$.$.$.$.$.$.$.$.$.$.$.$.",
"$.$.$.$.$.$.$.$.$.$.$.$.$.O.X.T ; $ O . . O % > ) [ } 3.3.3.3.3.3.3.| ] ] s $ $ X . o $ $ C X.X.#.$.$.$.$.$.$.$.$.$.$.$.$.$.$.$.",
"$.$.$.$.$.$.$.$.$.$.$.$.$.$.$.X.+     . .     # } 6.5.5.5.5.5.5.5.5.5.5.5.e     . . .     Z &.$.$.$.$.$.$.$.$.$.$.$.$.$.$.$.$.$.",
"$.$.$.$.$.$.$.$.$.$.$.$.$.$.$.O.h 9 : . . 1 a k B L K K K K K K K K K K K c a u o   & 9 9 Y $.$.$.$.$.$.$.$.$.$.$.$.$.$.$.$.$.$.",
"$.$.$.$.$.$.$.$.$.$.$.$.$.$.$.$.$.%.A . . R u.0.- . . . . . . . . . . . . R u.0.=   9 $.$.$.$.$.$.$.$.$.$.$.$.$.$.$.$.$.$.$.$.$.",
"$.$.$.$.$.$.$.$.$.$.$.$.$.$.$.$.$.%.A . . R u.0.- . . . . . . . . . . . . R u.0.-   9 $.$.$.$.$.$.$.$.$.$.$.$.$.$.$.$.$.$.$.$.$.",
"$.$.$.$.$.$.$.$.$.$.$.$.$.$.$.O.h 7 l K K c a k I W R R R R R R R R R R R b a k B L n 9 9 Y $.$.$.$.$.$.$.$.$.$.$.$.$.$.$.$.$.$.",
"$.$.$.$.$.$.$.$.$.$.$.$.$.$.$...+   t 5.5.e   $ q.u.u.u.u.u.u.u.u.u.u.u.u.a   $ { 6.L     Z %.$.$.$.$.$.$.$.$.$.$.$.$.$.$.$.$.$.",
"$.$.$.$.$.$.$.$.$.$.$.$.$.$.$.X.@   y 3.3.y   - 0.u.u.u.u.u.u.u.u.u.u.u.u.a   % ] 5.K . . A %.$.$.$.$.$.$.$.$.$.$.$.$.$.$.$.$.$.",
"$.$.$.$.$.$.$.$.$.$.$.$.$.$.$.X.@   y 3.3.y   - 0.u.u.u.u.u.u.u.u.u.u.u.u.a   % ] 5.K . . A %.$.$.$.$.$.$.$.$.$.$.$.$.$.$.$.$.$.",
"$.$.$.$.$.$.$.$.$.$.$.$.$.$.$...+   t 5.5.e   $ 0.u.u.u.u.u.u.u.u.u.u.u.u.a   $ { 6.L     Z %.$.$.$.$.$.$.$.$.$.$.$.$.$.$.$.$.$.",
"$.$.$.$.$.$.$.$.$.$.$.$.$.$.$.O.h 7 l K K c a z <.w.r.u.u.r.w.w.u.u.t.w.w.F a k B L n 9 9 Y $.$.$.$.$.$.$.$.$.$.$.$.$.$.$.$.$.$.",
"$.$.$.$.$.$.$.$.$.$.$.$.$.$.$.$.$.%.A . . R u.t.-./ ,.u.u.,./ -.y.u.w.*.*.w.u.0.-   9 $.$.$.$.$.$.$.$.$.$.$.$.$.$.$.$.$.$.$.$.$.",
"$.$.$.$.$.$.$.$.$.$.$.$.$.$.$.$.$.%.A . . R u.y.-./ ,.u.u.,./ -.y.u.w.*.*.w.u.0.-   9 $.$.$.$.$.$.$.$.$.$.$.$.$.$.$.$.$.$.$.$.$.",
"$.$.$.$.$.$.$.$.$.$.$.$.$.$.$.$.$.$. .A A o.9.@.p 3 N 8.8.N 3 a 2.8._ 4 4 ~ 9.4.G Z Y $.$.$.$.$.$.$.$.$.$.$.$.$.$.$.$.$.$.$.$.$.",
"$.$.$.$.$.$.$.$.$.$.$.$.$.$.$.$.$.$.$.%.%.$.$...+   e 3.3.e   $ ] 6.K     Z $.$.$.%.$.$.$.$.$.$.$.$.$.$.$.$.$.$.$.$.$.$.$.$.$.$.",
"$.$.$.$.$.$.$.$.$.$.$.$.$.$.$.$.$.$.$.$.$.$.$.X.: + i ] ] w   $ ( } B @ @ G $.$.$.$.$.$.$.$.$.$.$.$.$.$.$.$.$.$.$.$.$.$.$.$.$.$.",
"$.$.$.$.$.$.$.$.$.$.$.$.$.$.$.$.$.$.$.$.$.$.$.#.X.X.C % $ o . X $ $ 0 ..X.+.$.$.$.$.$.$.$.$.$.$.$.$.$.$.$.$.$.$.$.$.$.$.$.$.$.$.",
"$.$.$.$.$.$.$.$.$.$.$.$.$.$.$.$.$.$.$.$.$.$.$.$.$.&.Z               2 $.$.$.$.$.$.$.$.$.$.$.$.$.$.$.$.$.$.$.$.$.$.$.$.$.$.$.$.$.",
"$.$.$.$.$.$.$.$.$.$.$.$.$.$.$.$.$.$.$.$.$.$.$.$.$.$.Y 9 9 9 9 9 9 5 V $.$.$.$.$.$.$.$.$.$.$.$.$.$.$.$.$.$.$.$.$.$.$.$.$.$.$.$.$.",
"$.$.$.$.$.$.$.$.$.$.$.$.$.$.$.$.$.$.$.$.$.$.$.$.$.$.$.$.$.$.$.$.$.$.$.$.$.$.$.$.$.$.$.$.$.$.$.$.$.$.$.$.$.$.$.$.$.$.$.$.$.$.$.$.",
"$.$.$.$.$.$.$.$.$.$.$.$.$.$.$.$.$.$.$.$.$.$.$.$.$.$.$.$.$.$.$.$.$.$.$.$.$.$.$.$.$.$.$.$.$.$.$.$.$.$.$.$.$.$.$.$.$.$.$.$.$.$.$.$.",
"$.$.$.$.$.$.$.$.$.$.$.$.$.$.$.$.$.$.$.$.$.$.$.$.$.$.$.$.$.$.$.$.$.$.$.$.$.$.$.$.$.$.$.$.$.$.$.$.$.$.$.$.$.$.$.$.$.$.$.$.$.$.$.$.",
"$.$.$.$.$.$.$.$.$.$.$.$.$.$.$.$.$.$.$.$.$.$.$.$.$.$.$.$.$.$.$.$.$.$.$.$.$.$.$.$.$.$.$.$.$.$.$.$.$.$.$.$.$.$.$.$.$.$.$.$.$.$.$.$.",
"$.$.$.$.$.$.$.$.$.$.$.$.$.$.$.$.$.$.$.$.$.$.$.$.$.$.$.$.$.$.$.$.$.$.$.$.$.$.$.$.$.$.$.$.$.$.$.$.$.$.$.$.$.$.$.$.$.$.$.$.$.$.$.$."
};
